<?xml version="1.0" standalone="no"?>
<!DOCTYPE svg PUBLIC "-//W3C//DTD SVG 20010904//EN"
 "http://www.w3.org/TR/2001/REC-SVG-20010904/DTD/svg10.dtd">
<svg version="1.0" xmlns="http://www.w3.org/2000/svg"
 width="814.000000pt" height="814.000000pt" viewBox="0 0 814.000000 814.000000"
 preserveAspectRatio="xMidYMid meet">
<metadata>
Created by potrace 1.14, written by Peter Selinger 2001-2017
</metadata>
<g transform="translate(0.000000,814.000000) scale(0.100000,-0.100000)"
fill="#000000" stroke="none">
<path d="M1869 5664 c-25 -17 -54 -27 -93 -30 -80 -7 -100 -17 -119 -57 -9
-19 -24 -37 -32 -41 -8 -3 -15 -12 -15 -20 0 -8 -8 -17 -18 -20 -9 -3 -22 -16
-27 -28 -6 -13 -20 -27 -33 -33 -12 -5 -25 -18 -28 -28 -4 -13 -12 -16 -27
-12 -16 5 -18 4 -8 -3 11 -8 1 -24 -43 -77 -32 -36 -61 -77 -66 -91 -5 -13
-14 -24 -20 -24 -5 0 -10 -7 -10 -15 0 -9 -9 -35 -20 -58 -12 -23 -28 -69 -36
-101 -9 -33 -22 -69 -30 -80 -8 -11 -14 -28 -14 -37 0 -31 -131 -72 -147 -46
-2 4 -9 5 -14 1 -15 -9 -152 -12 -164 -4 -17 13 -226 19 -320 9 -49 -5 -102
-10 -117 -11 -14 -2 -30 -6 -34 -10 -4 -5 -16 -8 -27 -8 -19 0 -88 -45 -95
-62 -2 -4 -10 -8 -18 -8 -8 0 -14 -5 -14 -11 0 -6 -17 -31 -38 -57 -50 -60
-95 -145 -110 -202 -16 -63 -25 -201 -17 -249 6 -37 9 -40 31 -35 23 6 24 4
24 -37 1 -46 12 -66 45 -85 18 -10 39 -39 66 -91 7 -13 18 -23 26 -23 7 0 13
-4 13 -10 0 -5 7 -10 15 -10 7 0 18 -6 22 -13 12 -19 69 -57 86 -57 9 0 23 -7
31 -16 9 -8 20 -13 25 -10 15 9 61 -12 59 -26 -2 -8 5 -12 20 -10 13 2 22 -2
22 -10 0 -8 21 -20 48 -27 26 -8 52 -19 57 -26 9 -10 70 -27 160 -43 16 -3 34
-10 40 -17 15 -18 175 -39 242 -31 32 3 115 9 185 12 118 6 129 5 156 -15 16
-11 48 -23 70 -27 23 -3 49 -15 58 -25 26 -29 123 -71 174 -77 25 -2 50 -9 55
-16 13 -15 75 -36 107 -36 38 0 90 -29 84 -47 -3 -8 -6 -18 -6 -23 0 -4 -21
-11 -47 -15 -64 -9 -106 -42 -101 -77 4 -23 -1 -30 -24 -40 -15 -7 -28 -20
-28 -30 0 -9 -11 -25 -25 -36 -14 -11 -25 -29 -25 -41 0 -12 -6 -21 -16 -21
-12 0 -14 -9 -11 -45 5 -42 3 -45 -18 -45 -20 0 -23 -6 -27 -47 -2 -27 0 -63
5 -81 6 -25 4 -39 -7 -57 -16 -24 -15 -26 11 -167 3 -16 12 -28 19 -28 8 0 14
-10 14 -22 0 -38 12 -68 25 -68 8 0 11 -11 9 -32 -5 -37 18 -103 46 -133 10
-11 21 -31 25 -45 4 -13 14 -30 21 -38 8 -7 17 -31 20 -52 4 -27 19 -53 45
-80 36 -37 39 -46 39 -95 0 -30 4 -55 8 -55 5 0 15 -11 22 -25 7 -14 19 -25
25 -25 6 0 18 -11 25 -25 7 -14 21 -25 30 -25 28 0 79 -30 85 -49 3 -11 15
-21 26 -24 11 -3 23 -14 26 -25 2 -11 14 -25 26 -31 57 -29 106 -71 126 -109
6 -12 17 -22 24 -22 7 0 23 -16 37 -35 14 -18 33 -36 43 -38 9 -3 17 -12 17
-21 0 -9 7 -16 15 -16 7 0 18 -6 22 -14 4 -7 25 -21 46 -31 22 -10 41 -24 44
-32 3 -7 16 -13 29 -13 15 0 24 -6 24 -15 0 -10 11 -15 35 -15 19 0 35 -4 35
-10 0 -5 22 -10 49 -10 34 0 51 -4 55 -15 4 -11 22 -15 70 -15 35 0 66 -4 68
-10 4 -13 222 6 226 20 2 5 13 10 24 10 11 0 33 14 48 30 38 41 44 98 25 239
-8 63 -15 132 -15 153 0 33 -8 45 -65 102 -36 35 -65 71 -65 79 0 9 -12 22
-27 29 -15 7 -36 32 -48 56 -12 23 -37 59 -57 80 -35 38 -58 87 -58 127 0 13
-14 50 -30 84 -24 48 -28 65 -20 80 15 30 12 83 -8 116 -9 17 -23 48 -31 70
-20 60 -62 145 -72 145 -5 0 -9 12 -9 26 0 20 4 25 16 20 9 -3 28 -9 42 -12
15 -4 32 -10 37 -14 6 -4 33 -10 60 -14 72 -10 158 -28 170 -36 17 -12 58 -19
130 -21 39 -1 82 -6 97 -11 33 -12 473 16 491 30 7 6 37 12 67 15 81 8 164 23
186 35 10 6 51 16 89 22 69 12 125 36 125 53 0 5 8 6 19 2 10 -3 24 1 31 10 7
8 22 15 34 15 11 0 39 14 60 30 22 17 45 30 51 30 6 0 27 14 45 30 18 17 41
30 51 30 9 0 19 7 23 15 3 8 11 15 17 15 6 0 33 16 59 35 26 19 54 35 63 35 8
0 20 7 27 15 6 8 15 14 18 13 9 -2 42 11 62 22 16 10 39 21 170 82 47 22 108
50 135 63 28 13 66 29 85 36 19 7 52 24 74 38 21 14 53 35 70 46 18 11 51 35
73 53 23 17 52 32 67 32 28 0 118 28 126 39 3 4 13 11 24 14 14 6 16 10 6 22
-9 11 -4 18 27 37 70 43 161 81 231 98 28 6 54 16 57 20 3 5 31 14 63 20 31 7
59 16 62 20 3 4 25 14 50 22 30 10 49 23 58 41 7 15 21 27 31 27 10 0 24 6 30
14 35 41 113 24 171 -38 19 -20 41 -36 50 -36 8 0 20 -8 27 -19 13 -20 200
-115 248 -125 17 -4 51 -20 75 -36 25 -17 51 -30 58 -30 6 0 12 -5 12 -10 0
-6 8 -14 18 -17 9 -4 36 -20 58 -35 23 -15 46 -28 52 -28 5 0 24 -16 41 -35
17 -19 34 -35 39 -35 5 0 17 -10 28 -21 22 -25 227 -126 273 -135 17 -4 36
-13 42 -20 13 -16 114 -20 123 -5 3 4 51 10 106 13 l101 5 60 59 c33 32 63 70
66 83 3 14 12 36 19 50 20 38 17 99 -6 136 -18 28 -19 47 -17 169 3 115 6 138
20 149 13 9 16 20 11 45 -4 17 -10 32 -14 32 -5 0 -11 13 -15 28 -3 18 -41 64
-100 122 -52 51 -95 99 -95 105 0 7 -9 23 -19 37 -11 13 -23 36 -26 50 -12 45
-87 114 -146 133 -30 10 -58 21 -64 25 -5 4 -26 13 -46 19 -21 7 -39 20 -42
31 -3 10 -30 30 -66 47 -33 15 -64 36 -67 46 -3 9 -12 17 -20 17 -8 0 -14 6
-14 13 0 13 -34 47 -48 47 -4 0 -20 24 -36 54 -31 57 -31 95 -1 153 27 52 15
183 -16 183 -6 0 -17 7 -25 15 -9 8 -27 17 -42 21 -15 3 -35 9 -44 15 -10 5
-30 9 -44 9 -45 0 -238 31 -249 40 -14 11 -139 40 -175 40 -16 0 -31 4 -34 9
-3 4 -25 11 -48 15 -89 13 -113 18 -124 27 -6 5 -36 16 -65 25 -30 8 -67 21
-84 29 -16 7 -70 18 -120 25 -49 6 -99 15 -110 19 -11 5 -65 17 -120 26 -55
10 -102 21 -105 26 -3 4 -41 10 -85 13 -122 10 -154 16 -232 42 -39 13 -93 24
-120 24 -27 0 -53 4 -58 9 -6 6 -46 13 -90 16 -44 4 -95 8 -114 10 -18 2 -74
6 -125 10 -50 4 -95 11 -101 15 -34 27 -1035 27 -1070 0 -5 -4 -35 -11 -65
-15 -30 -4 -64 -9 -75 -10 -68 -12 -91 -18 -100 -25 -5 -4 -48 -13 -95 -20
-47 -7 -98 -18 -115 -25 -16 -8 -41 -16 -55 -20 -14 -3 -47 -16 -75 -30 -102
-48 -141 -63 -180 -70 -22 -4 -53 -15 -70 -25 -16 -10 -41 -21 -55 -25 -23 -7
-110 -45 -155 -68 -66 -34 -80 -43 -85 -47 -10 -10 -85 -51 -120 -66 -19 -8
-48 -21 -65 -29 -16 -7 -41 -18 -55 -24 -14 -6 -47 -25 -75 -41 -106 -61 -140
-65 -180 -23 -14 15 -25 32 -25 38 0 6 -9 26 -19 46 -11 20 -21 49 -24 65 -12
74 -20 105 -28 110 -5 3 -9 20 -9 38 0 18 -7 55 -15 81 -8 27 -12 52 -9 56 2
4 0 10 -5 14 -6 3 -15 33 -22 66 -10 49 -16 62 -36 70 -38 14 -55 11 -94 -17z"/>
</g>
</svg>
